<?xml version="1.0" encoding="utf-8"?>
<svg viewBox="0 0 500 500" xmlns="http://www.w3.org/2000/svg">
  <g transform="matrix(1, 0, 0, 1, 55.245605, 49.370781)">
    <polygon points="172.27946 400.51778 162.93495 400.51687 158.4897 364.47332 172.28134 364.47429 172.27946 400.51778" fill="#a0616a"/>
    <path d="M140.26397,400.3058h0c-.29096,.49002-.44448,2.0716-.44448,2.64146h0c0,1.75159,1.41992,3.17157,3.17157,3.17157h28.93888c1.19492,0,2.16366-.96868,2.16366-2.16366v-1.20482s1.43158-3.62111-1.51579-8.08432c0,0-3.66318,3.49476-9.13692-1.97897l-1.61416-2.92417-11.68427,8.54529-6.47641,.79718c-1.41691,.17439-2.67313-.02707-3.40197,1.20044h-.00011Z" fill="#2f2e41"/>
  </g>
  <g transform="matrix(1, 0, 0, 1, 55.245605, 49.370781)">
    <polygon points="130.41116 400.51778 121.06664 400.51687 116.6214 364.47332 130.41303 364.47429 130.41116 400.51778" fill="#a0616a"/>
    <path d="M98.39566,400.3058h0c-.29096,.49002-.44448,2.0716-.44448,2.64146h0c0,1.75159,1.41992,3.17157,3.17157,3.17157h28.93888c1.19492,0,2.16366-.96868,2.16366-2.16366v-1.20482s1.43158-3.62111-1.51579-8.08432c0,0-3.66318,3.49476-9.13692-1.97897l-1.61416-2.92417-11.68427,8.54529-6.47641,.79718c-1.41691,.17439-2.67313-.02707-3.40197,1.20044h-.00011Z" fill="#2f2e41"/>
  </g>
  <polygon points="228.327 223.762 237.027 246.056 230.231 424.132 211.199 424.132 194.072 263.455 189.993 424.675 171.506 424.132 151.388 245.24 164.709 229.199 228.327 223.762" fill="#2f2e41"/>
  <path d="M 187.275 97.341 L 210.112 95.71 L 217.181 107.129 L 238.387 113.11 L 230.502 168.3 L 238.93 250.677 C 238.93 250.677 208.481 246.327 206.306 255.027 C 204.131 263.727 150.844 246.327 150.844 246.327 L 169.059 190.05 L 167.428 146.007 L 162.534 120.451 L 184.828 110.119 L 187.275 97.341 L 187.275 97.341 Z" fill="#e6e6e6"/>
  <path d="M 176.944 113.654 C 176.944 113.654 158.745 113.382 156.29 120.994 C 153.834 128.607 145.678 181.35 145.678 181.35 L 139.425 204.459 L 167.428 190.594 L 161.447 181.365 L 181.022 143.832 L 176.944 113.654 L 176.944 113.654 Z" fill="#e6e6e6"/>
  <path d="M 188.077 198.206 C 191.086 198.209 193.883 196.475 195.053 193.703 C 195.938 191.606 195.854 189.595 195.192 187.87 C 195.405 187.782 195.616 187.69 195.835 187.612 C 195.514 187.482 195.203 187.335 194.892 187.188 C 193.808 185.028 191.73 183.46 189.254 183.079 C 186.189 179.795 184.304 175.395 184.284 170.552 C 184.244 160.57 192.341 152.233 202.319 151.993 C 202.398 151.991 202.476 151.99 202.555 151.989 C 207.023 151.938 211.077 154.437 213.34 158.29 C 214.661 160.538 217.103 162.047 219.899 162.047 C 222.041 162.047 223.972 161.162 225.353 159.738 C 228.361 156.636 232.128 154.327 236.391 153.619 C 239.19 153.154 242.087 152.979 245.052 153.126 C 265.344 154.135 282.803 172.12 283.236 192.433 C 283.719 215.058 265.523 233.549 243.009 233.549 C 231.293 233.549 220.753 228.539 213.401 220.548 C 210.138 217 205.564 215.012 200.744 215.061 C 200.695 215.062 200.646 215.062 200.597 215.062 C 192.789 215.062 186.459 208.733 186.459 200.925 C 186.459 200.492 186.481 200.064 186.521 199.642 C 186.597 198.852 187.284 198.205 188.077 198.206 L 188.077 198.206 Z" fill="#00bfa6"/>
  <g transform="matrix(1, 0, 0, 1, 55.245605, 49.370781)">
    <path d="M395.81652,299.39217c-.98768-1.66544-5.26054,.11777-6.04609-1.39368-.78277-1.506,3.18724-3.80066,5.45536-9.04262,.40902-.94533,2.98659-6.90244,1.07842-8.74062-3.61682-3.48419-20.16758,10.89424-25.95964,6.18894-1.27113-1.0326-2.15915-3.09405-6.00631-6.44093-1.53047-1.33144-2.45593-1.93261-3.35157-1.70894-1.27084,.31733-1.37158,2.01824-2.73431,5.36252-2.04369,5.01544-3.25251,4.7126-4.44325,8.71409-.88394,2.97053-.68203,4.69751-1.72221,5.03399-1.47194,.47615-2.8268-2.67464-4.6922-2.39252-1.90357,.28792-3.05439,3.95645-3.41789,6.70315-.68214,5.15439,1.21075,8.5556,2.25989,12.13198,1.14014,3.88661,1.8168,9.79735-.8162,18.16481l-26.06075,73.42634c5.7534-15.06687,22.41225-56.36918,29.41232-71.7174,2.02076-4.4307,4.25202-8.9248,8.83345-10.69851,4.41082-1.7077,10.46849-.68815,18.19133-2.54863,.90196-.21725,3.40484-.85406,3.71989-2.32621,.26045-1.21708-1.21178-1.89641-.98558-3.03631,.30341-1.52901,3.19852-1.54776,6.7562-3.31179,2.50866-1.2439,4.07156-2.72322,5.41557-3.99536,.40521-.38353,6.42839-6.15529,5.11357-8.3723Z" style="fill: rgb(0, 191, 166);"/>
    <path d="M293.28575,338.04689c-1.10238,.00423-1.46003,2.61589-2.42852,2.56534-.96501-.05034-.94577-2.66093-2.86413-5.28661-.34596-.47351-2.52604-3.45741-3.9788-3.05124-2.75363,.76986-.47203,13.04172-4.45261,14.52687-.87357,.32594-2.14157,.16699-4.89427,1.08952-1.09507,.367-1.65715,.64777-1.8058,1.15189-.21093,.7153,.59482,1.25551,1.84302,2.88928,1.87194,2.45017,1.37452,2.95609,2.99491,4.69507,1.20291,1.29094,2.10878,1.69013,1.97381,2.29774-.191,.85982-2.12835,.61569-2.52812,1.61265-.40793,1.01736,1.06056,2.64068,2.30378,3.61159,2.33299,1.822,4.54849,1.87432,6.60651,2.39129,2.23654,.56182,5.33281,1.93515,8.67991,5.64173l28.51878,33.97664c-5.73488-7.17108-21.19972-27.2644-26.71299-35.12853-1.59156-2.2702-3.15351-4.66201-2.70217-7.42238,.43451-2.65759,2.68275-5.33656,3.9979-9.66379,.15362-.50537,.56323-1.91754-.06841-2.49693-.5222-.479-1.28041,.04757-1.77461-.39234-.6629-.59009,.16323-2.01643,.32393-4.27154,.11331-1.59017-.1618-2.78408-.39839-3.81079-.07132-.30954-1.16626-4.93109-2.63375-4.92545Z" style="fill: rgb(0, 191, 166);"/>
    <path d="M315.27831,342.98373l-.66418-5.92894,.30346-.44947c1.40422-2.07842,2.11993-4.10818,2.12852-6.03487,.00143-.30632-.01288-.61265-.0272-.9247-.05726-1.23675-.12883-2.77409,.67277-4.56623,.44947-.99913,1.71198-3.31231,3.61004-3.02602,.51102,.07157,.8975,.30632,1.19094,.58116,.04294-.06871,.08732-.13742,.13455-.21185,.59118-.90179,1.05925-1.28828,1.51015-1.66045,.3464-.28628,.70426-.58116,1.26538-1.27969,.2462-.30632,.43801-.57543,.59977-.8016,.49098-.68422,1.13225-1.50013,2.26308-1.48581,1.20812,.05726,1.84081,1.05639,2.26021,1.7177,.74863,1.17949,1.08788,2.02975,1.31261,2.59373,.08159,.20612,.17463,.43801,.22187,.50959,.38935,.57257,3.55422,.03722,4.74659-.15746,2.67819-.4466,4.99566-.83309,5.95042,.85599,.68422,1.20812,.17606,2.80558-1.55595,4.87542-.53965,.64414-1.11365,1.13369-1.62323,1.51731,.42227,.25193,.80016,.63841,.95333,1.24534h0c.36072,1.43715-.8746,2.87716-3.67016,4.28567-.69424,.35213-1.62896,.82164-2.93871,1.0478-.61694,.10593-1.17233,.13169-1.64757,.146-.01002,.27483-.07443,.57257-.24191,.87889-.49098,.90179-1.51301,1.33122-3.05322,1.22816-1.6948-.08875-3.09044-.41225-4.32146-.69567-1.075-.2462-2.00113-.45519-2.72829-.40652-1.3484,.10879-2.38761,1.18808-3.60718,2.58801l-3.04463,3.55851Z" style="fill: rgb(0, 191, 166);"/>
    <path d="M318.35931,307.6827l-5.56657,2.14634-.51174-.17953c-2.36663-.83111-4.51154-1.00856-6.3774-.52817-.29667,.07631-.58934,.16786-.88756,.26086-1.18178,.36909-2.65069,.82826-4.58755,.50746-1.08046-.18134-3.63823-.81582-3.84275-2.72443-.06039-.51246,.06865-.94585,.26007-1.2994-.07735-.02411-.15507-.04961-.23905-.07642-1.02225-.3431-1.51483-.69784-1.98919-1.03959-.36479-.26246-.74079-.53382-1.5588-.8994-.35876-.16045-.66771-.27773-.92751-.37683-.78638-.30137-1.73826-.71472-2.01125-1.81219-.25106-1.18313,.55492-2.04856,1.08823-2.62199,.95103-1.02333,1.68743-1.56715,2.17596-1.92759,.17869-.13121,.37939-.28002,.43664-.34387,.45509-.52185-.86553-3.44742-1.35628-4.55142-1.11132-2.47732-2.07299-4.62097-.68133-5.97293,.99506-.96828,2.66917-.88194,5.11064,.26842,.75995,.35861,1.37909,.78967,1.87942,1.18528,.13658-.47236,.41457-.93593,.9628-1.23803h0c1.29865-.71345,3.0049,.1162,5.07645,2.46307,.51671,.58222,1.20795,1.36728,1.75894,2.57682,.25895,.5699,.42475,1.10059,.55914,1.55665,.26839-.06002,.57272-.07323,.91151,.01107,.99684,.24618,1.67146,1.12587,1.96244,2.64184,.34404,1.66189,.38512,3.09393,.42322,4.35659,.03452,1.10229,.06728,2.05114,.2988,2.74218,.44725,1.27671,1.75484,2.00817,3.41833,2.83276l4.21441,2.04244Z" style="fill: rgb(0, 191, 166);"/>
    <path d="M315.27831,290.21584l-.66418-5.92894,.30346-.44947c1.40422-2.07842,2.11993-4.10818,2.12852-6.03487,.00143-.30632-.01288-.61265-.0272-.9247-.05726-1.23675-.12883-2.77409,.67277-4.56623,.44947-.99913,1.71198-3.31231,3.61004-3.02602,.51102,.07157,.8975,.30632,1.19094,.58116,.04294-.06871,.08732-.13742,.13455-.21185,.59118-.90179,1.05925-1.28828,1.51015-1.66045,.3464-.28628,.70426-.58116,1.26538-1.27969,.2462-.30632,.43801-.57543,.59977-.8016,.49098-.68422,1.13225-1.50013,2.26308-1.48581,1.20812,.05726,1.84081,1.05639,2.26021,1.7177,.74863,1.17949,1.08788,2.02975,1.31261,2.59373,.08159,.20612,.17463,.43801,.22187,.50959,.38935,.57257,3.55422,.03722,4.74659-.15746,2.67819-.4466,4.99566-.83309,5.95042,.85599,.68422,1.20812,.17606,2.80558-1.55595,4.87542-.53965,.64414-1.11365,1.13369-1.62323,1.51731,.42227,.25193,.80016,.63841,.95333,1.24534h0c.36072,1.43715-.8746,2.87716-3.67016,4.28567-.69424,.35213-1.62896,.82164-2.93871,1.0478-.61694,.10593-1.17233,.13169-1.64757,.146-.01002,.27483-.07443,.57257-.24191,.87889-.49098,.90179-1.51301,1.33122-3.05322,1.22816-1.6948-.08875-3.09044-.41225-4.32146-.69567-1.075-.2462-2.00113-.45519-2.72829-.40652-1.3484,.10879-2.38761,1.18808-3.60718,2.58801l-3.04463,3.55851Z" style="fill: rgb(0, 191, 166);"/>
    <path d="M321.34467,405.30205l-1.24247-.77869-.3006-1.43428,.3006,1.43428-1.4486,.16604c-.0229-.13455-.10163-.44374-.22044-.92756-.64843-2.65099-2.62523-10.71848-4.27422-23.42377-1.15086-8.86908-1.80216-17.98723-1.93671-27.10538-.13455-9.13246,.29774-16.04622,.64414-21.603,.26195-4.1912,.57973-8.182,.89177-12.06974,.83022-10.38639,1.61321-20.19734,1.03062-31.05896-.12883-2.42483-.39937-7.47202-3.34809-12.8427-1.71055-3.11477-4.06667-5.88028-7.00394-8.21635l1.82649-2.296c3.24217,2.58228,5.84878,5.64552,7.74828,9.10383,3.26936,5.95471,3.56424,11.45423,3.70595,14.09663,.59261,11.05343-.19897,20.95886-1.03778,31.44545-.30919,3.87342-.62696,7.84705-.88748,12.02107-.34354,5.50524-.77154,12.35888-.63841,21.37397,.13169,9.00936,.77583,18.01586,1.91095,26.77329,1.62896,12.54497,3.57712,20.49222,4.21696,23.10313,.34068,1.3942,.41225,1.68621,.06298,2.23874Z" style="fill: rgb(0, 191, 166);"/>
    <path d="M299.06032,272.09979c-.12024,0-.24191-.00286-.36501-.01145-2.4964-.13455-4.80814-1.62896-6.87225-4.44027-.96764-1.32263-1.46291-2.83135-2.45059-5.8402-.15316-.46378-.8975-2.81704-1.34983-6.05491-.2963-2.11564-.25909-3.00026,.16032-3.78181,.46521-.8703,1.21814-1.47723,2.06554-1.88661-.03722-.28056-.00716-.56971,.11451-.86458,.49957-1.22243,1.82792-1.06211,2.5465-.98482,.36358,.04581,.81734,.10593,1.30689,.08016,.7701-.03722,1.18378-.26624,1.81075-.60979,.59977-.32923,1.34554-.73861,2.45202-.96478,2.18148-.45519,4.00941,.16318,4.61204,.36644,3.1706,1.05639,4.73371,3.52129,6.54302,6.37555,.36072,.57257,1.5989,2.65672,2.41624,5.51383,.58975,2.06125,.50672,2.97735,.32923,3.65871-.36072,1.39993-1.21241,2.20152-3.37529,3.97076-2.25878,1.85226-3.39247,2.77982-4.36583,3.3438-2.26594,1.30832-3.68877,2.12995-5.57825,2.12995Z" style="fill: rgb(0, 191, 166);"/>
  </g>
  <polygon points="254.971 186.244 119.579 160.688 119.035 170.475 253.34 202.556 254.971 186.244" fill="#00bfa6"/>
  <path d="M 121.21 162.319 L 119.579 160.688 C 119.579 160.688 112.51 157.425 112.51 156.881 C 112.51 156.541 102.072 153.006 94.262 150.408 C 89.901 148.957 85.295 151.828 84.674 156.382 L 83.695 163.559 C 83.11 167.85 86.348 171.712 90.675 171.885 L 109.791 172.65 L 119.035 170.475 L 121.21 162.319 L 121.21 162.319 Z" fill="#00bfa6"/>
  <polygon points="254.699 189.234 255.022 187.88 119.543 161.979 119.307 163.678 254.699 189.234" fill="#3f3d56"/>
  <polygon points="254.389 191.806 254.699 190.322 119.396 164.66 119.307 166.397 254.389 191.806" fill="#3f3d56"/>
  <polygon points="254.078 194.889 254.155 192.497 119.289 166.612 119.307 168.028 254.078 194.889" fill="#3f3d56"/>
  <polygon points="253.717 198.469 253.612 196.303 119.093 168.563 118.977 169.094 253.717 198.469" fill="#3f3d56"/>
  <polygon points="253.715 200.64 253.612 199.022 119.295 169.461 119.175 169.991 253.715 200.64" fill="#3f3d56"/>
  <path d="M 175.916 110.187 L 182.653 106.457 L 185.575 166.125 L 184.556 173.466 C 184.556 173.466 167.548 126.567 175.916 110.187 L 175.916 110.187 Z" fill="#3f3d56"/>
  <circle cx="198.965" cy="74.776" r="16.856" fill="#a0616a"/>
  <path d="M 184.556 84.835 L 188.586 88.052 L 184.012 70.698 C 184.012 70.698 196.79 70.426 197.878 63.357 C 197.878 63.357 207.937 63.086 210.656 63.086 C 213.374 63.086 214.601 81.075 214.601 81.075 C 214.601 81.075 219.899 66.348 214.462 58.736 C 209.025 51.123 210.928 55.745 209.84 53.026 C 208.753 50.308 197.606 47.807 190.537 50.579 C 183.469 53.352 183.197 57.303 181.022 57.34 C 178.847 57.376 171.234 68.251 178.303 76.951 C 185.372 85.651 184.556 84.835 184.556 84.835 L 184.556 84.835 Z" fill="#2f2e41"/>
  <path d="M 236.052 195.449 C 238.05 193.854 239.522 191.941 240.352 190.05 L 260.344 176.066 L 253.412 166.748 L 233.878 181.936 C 231.85 182.326 229.658 183.336 227.66 184.93 C 223.096 188.572 221.274 193.879 223.592 196.784 C 225.909 199.688 231.488 199.09 236.052 195.449 L 236.052 195.449 Z" fill="#a0616a"/>
  <path d="M 159.46 174.177 C 157.977 176.259 157.088 178.504 156.81 180.55 L 141.435 199.493 L 150.663 206.545 L 165.266 186.57 C 167.109 185.638 168.939 184.064 170.421 181.982 C 173.808 177.225 174.099 171.622 171.072 169.467 C 168.046 167.312 162.846 169.421 159.46 174.177 L 159.46 174.177 Z" fill="#a0616a"/>
  <path d="M 229.687 116.644 C 229.687 116.644 234.58 108.488 239.474 113.382 C 243.347 117.254 264.583 141.895 273.278 152.012 C 275.676 154.802 276.993 158.356 276.993 162.035 C 276.993 167.725 273.851 172.95 268.825 175.619 L 241.649 190.05 L 234.037 178.631 L 257.418 161.775 L 221.531 142.2 L 229.687 116.644 L 229.687 116.644 Z" fill="#e6e6e6"/>
  <polyline points="143.754 191.806 139.425 204.459 151.931 210.984 161.447 204.459 167.428 190.594 149.756 185.428" fill="#e6e6e6"/>
  <path d="M 345.936 70.538 L 304.858 81.697 L 310.835 108.352 C 308.902 107.055 306.577 106.297 304.075 106.297 C 297.366 106.297 291.927 111.736 291.927 118.445 C 291.927 125.155 297.366 130.594 304.075 130.594 C 310.784 130.594 316.223 125.155 316.223 118.445 C 316.223 116.113 315.555 113.943 314.416 112.093 L 309.677 90.96 L 345.115 79.818 L 348.356 95.56 C 346.411 94.237 344.062 93.462 341.532 93.462 C 334.823 93.462 329.384 98.901 329.384 105.61 C 329.384 112.319 334.823 117.758 341.532 117.758 C 348.242 117.758 353.681 112.319 353.681 105.61 C 353.681 103.253 352.999 101.061 351.837 99.198 L 345.936 70.538 L 345.936 70.538 Z" fill="#00bfa6"/>
  <path d="M 386.223 95.455 C 379.584 95.455 374.201 100.837 374.201 107.477 C 374.201 109.354 374.644 111.124 375.411 112.706 L 382.272 141.01 L 386.167 140.066 L 380.874 118.232 C 382.487 119.036 384.299 119.499 386.223 119.499 C 392.863 119.499 398.246 114.117 398.246 107.477 C 398.246 100.838 392.863 95.455 386.223 95.455 L 386.223 95.455 Z" fill="#00bfa6"/>
  <path d="M 435.148 157.837 L 428.337 130.594 L 424.201 131.566 L 429.529 152.875 C 427.891 152.133 426.069 151.707 424.141 151.707 C 417.092 151.707 411.377 157.247 411.377 164.083 C 411.377 170.918 417.092 176.459 424.141 176.459 C 431.191 176.459 436.906 170.918 436.906 164.083 C 436.906 161.802 436.258 159.672 435.148 157.837 L 435.148 157.837 Z" fill="#00bfa6"/>
</svg>