<?xml version="1.0" encoding="iso-8859-1"?>
<!-- Uploaded to: SVG Repo, www.svgrepo.com, Generator: SVG Repo Mixer Tools -->
<svg fill="#000000" height="800px" width="800px" version="1.1" id="Layer_1" xmlns="http://www.w3.org/2000/svg" xmlns:xlink="http://www.w3.org/1999/xlink" 
	 viewBox="0 0 512 512" xml:space="preserve">
<g>
	<g>
		<path d="M491.694,344.615V127.918c0-32.529-26.5-58.995-59.077-58.995c-32.577,0-59.077,26.466-59.077,58.995v25
			c-9.846-9.423-23.837-15.072-38.769-15.072c-20.211,0-38.211,10.351-48.923,26.404c-10.702-16.053-29.471-26.404-49.692-26.404
			c-14.933,0-27.538,5.649-39.846,15.077V59.135c0-32.606-26.5-59.135-59.077-59.135S78.155,26.529,78.155,59.135v98.404v25.837
			l-46.404,53.731c-13.654,15.616-15.269,41.447-4.24,58.539C32.819,304.481,159.011,512,286.001,512
			c132.914,0,202.49-156.764,205.404-163.438C491.953,347.317,491.694,345.976,491.694,344.615z M472.001,342.466
			c-7.385,17.106-73.461,149.841-186.462,149.841c-115.875,0-239.904-204.731-241.308-207.067
			c-6.471-10.024-5.712-26.13,2.192-35.168l31.731-36.787V256c0,5.438,4.404,9.846,9.846,9.846s9.846-4.409,9.846-9.846v-68.923
			v-29.538V59.135c0-21.75,17.664-39.442,39.385-39.442s39.385,17.692,39.385,39.442v127.942c0,5.438,5.99,9.846,11.433,9.846
			c4.683,0,9.029-3.303,9.962-7.894c3.692-18.245,20.087-31.49,38.76-31.49c18.683,0,35,13.416,38.683,31.666
			c0.933,4.591,5.048,8.07,9.731,8.07h1.942c4.683,0,8.721-3.478,9.654-8.07c3.692-18.245,19.933-31.578,38.606-31.578
			c18.683,0,34.923,13.197,38.606,31.446c0.933,4.591,5.327,7.872,10.01,7.872c5.442,0,9.231-4.43,9.231-9.868v-59.159
			c0-21.673,17.664-39.303,39.385-39.303s39.385,17.63,39.385,39.303V342.466z"/>
	</g>
</g>
</svg>